<svg width="24" height="24" viewBox="0 0 24 24" fill="#FF1F2C" xmlns="http://www.w3.org/2000/svg">
  <path d="M12 15.5C13.933 15.5 15.5 13.933 15.5 12C15.5 10.067 13.933 8.5 12 8.5C10.067 8.5 8.5 10.067 8.5 12C8.5 13.933 10.067 15.5 12 15.5ZM19.43 12.98C19.47 12.66 19.5 12.33 19.5 12C19.5 11.67 19.47 11.34 19.43 11.02L21.54 9.37C21.71 9.24 21.76 9 21.65 8.8L19.65 5.2C19.55 5.02 19.33 4.95 19.14 5.01L16.56 5.8C16.06 5.43 15.5 5.13 14.88 4.92L14.5 2.2C14.48 2.01 14.32 1.86 14.13 1.86H9.87C9.68 1.86 9.52 2.01 9.5 2.2L9.12 4.92C8.5 5.13 7.94 5.43 7.44 5.8L4.86 5.01C4.67 4.95 4.45 5.02 4.35 5.2L2.35 8.8C2.24 9 2.29 9.24 2.46 9.37L4.57 11.02C4.53 11.34 4.5 11.67 4.5 12C4.5 12.33 4.53 12.66 4.57 12.98L2.46 14.63C2.29 14.76 2.24 15 2.35 15.2L4.35 18.8C4.45 18.98 4.67 19.05 4.86 18.99L7.44 18.2C7.94 18.57 8.5 18.87 9.12 19.08L9.5 21.8C9.52 21.99 9.68 22.14 9.87 22.14H14.13C14.32 22.14 14.48 21.99 14.5 21.8L14.88 19.08C15.5 18.87 16.06 18.57 16.56 18.2L19.14 18.99C19.33 19.05 19.55 18.98 19.65 18.8L21.65 15.2C21.76 15 21.71 14.76 21.54 14.63L19.43 12.98Z" />
</svg>
